<?xml version="1.0" encoding="iso-8859-1"?>
<!-- Generator: Adobe Illustrator 19.0.0, SVG Export Plug-In . SVG Version: 6.00 Build 0)  -->
<svg version="1.1" id="Capa_1" xmlns="http://www.w3.org/2000/svg" xmlns:xlink="http://www.w3.org/1999/xlink" x="0px" y="0px"
	 viewBox="0 0 512 512" style="enable-background:new 0 0 512 512;" xml:space="preserve">
<polygon style="fill:#FF0A68;" points="428.53,173.82 393.61,512 118.39,512 83.47,173.82 "/>
<polygon style="fill:#E0025F;" points="428.53,173.82 393.61,512 256,512 256,173.82 "/>
<path style="fill:#FFC300;" d="M435.33,139.24c0,8.05-1.16,16.07-3.43,23.81l-3.17,10.77H83.27l-3.17-10.77
	c-2.27-7.74-3.43-15.76-3.43-23.81c0-46.54,37.86-84.4,84.4-84.4c2.59,0,5.18,0.11,7.75,0.35c6.7-14.21,16.77-26.53,29.59-36.1
	C215.15,6.6,235.06,0,256,0s40.85,6.6,57.59,19.09c12.82,9.57,22.89,21.89,29.59,36.1c2.57-0.24,5.16-0.35,7.75-0.35
	C397.47,54.84,435.33,92.7,435.33,139.24z"/>
<path style="fill:#FFA700;" d="M435.33,139.24c0,8.05-1.16,16.07-3.43,23.81l-3.17,10.77H256V0c20.94,0,40.85,6.6,57.59,19.09
	c12.82,9.57,22.89,21.89,29.59,36.1c2.57-0.24,5.16-0.35,7.75-0.35C397.47,54.84,435.33,92.7,435.33,139.24z"/>
<polygon style="fill:#FFDE82;" points="232.48,512 202.41,512 180.55,173.82 210.62,173.82 "/>
<polygon style="fill:#FFBF7B;" points="331.45,173.82 309.59,512 279.52,512 301.38,173.82 "/>
<g>
</g>
<g>
</g>
<g>
</g>
<g>
</g>
<g>
</g>
<g>
</g>
<g>
</g>
<g>
</g>
<g>
</g>
<g>
</g>
<g>
</g>
<g>
</g>
<g>
</g>
<g>
</g>
<g>
</g>
</svg>
